Coordinates
version=1
nRows=29
nColumns=24
inDegrees=yes

Units are S.I. units (second, meters, Newtons, ...)
Angles are in degrees.

endheader
time	pelvis_tilt	pelvis_list	pelvis_rotation	pelvis_tx	pelvis_ty	pelvis_tz	hip_flexion_r	hip_adduction_r	hip_rotation_r	knee_angle_r	ankle_angle_r	subtalar_angle_r	mtp_angle_r	hip_flexion_l	hip_adduction_l	hip_rotation_l	knee_angle_l	ankle_angle_l	subtalar_angle_l	mtp_angle_l	lumbar_extension	lumbar_bending	lumbar_rotation
      4.19000000	    -18.61637278	     -1.96718184	     -1.63578067	     -1.25625565	     -0.00029609	     -0.24157429	     10.40461030	      8.88201739	      7.66696805	     -7.49652542	      2.44924357	     -2.69620473	      3.49933048	     44.60681243	      1.64413892	      4.76284787	    -51.95972106	     15.75999867	      8.45890050	    -66.83659496	     13.21522190	      1.44951354	      4.67308978
      4.19500000	    -18.59052455	     -1.81431495	     -1.94581259	     -1.24915751	     -0.00023695	     -0.24126809	      9.65517874	      8.73059073	      7.77395120	     -7.10330878	      2.32072312	     -2.44913766	      3.58491403	     44.88556353	      1.62959130	      4.69214602	    -50.38856814	     16.03389002	      8.64688028	    -66.91845679	     13.13354406	      1.42266100	      4.94932992
      4.20000000	    -18.56874022	     -1.67335019	     -2.25068343	     -1.24206337	     -0.00029385	     -0.24098770	      8.92779924	      8.58615793	      7.86442207	     -6.74021891	      2.21170005	     -2.19881094	      3.69789862	     45.13577889	      1.60164306	      4.63567053	    -48.74795579	     16.22470600	      8.78106580	    -66.98216168	     13.05269026	      1.41061977	      5.22328282
      4.20500000	    -18.52620939	     -1.53981702	     -2.54751876	     -1.23497497	     -0.00043266	     -0.24075134	      8.19591791	      8.44130452	      7.93000198	     -6.40604950	      2.11519007	     -1.94379956	      3.86692650	     45.32581738	      1.57086325	      4.59940912	    -47.03267611	     16.34660371	      8.86614661	    -67.03332290	     12.94916163	      1.41010866	      5.49520665
      4.21000000	    -18.52256115	     -1.41010170	     -2.83803760	     -1.22786364	     -0.00071805	     -0.24047700	      7.51612168	      8.30101344	      7.98896430	     -6.09141731	      2.04368907	     -1.67951933	      4.01799137	     45.52768492	      1.51841578	      4.55070295	    -45.25787633	     16.37796788	      8.95073709	    -67.05191881	     12.88629342	      1.40468855	      5.71543880
      4.21500000	    -18.48553969	     -1.28202783	     -3.12580840	     -1.22074405	     -0.00106784	     -0.24023050	      6.81939283	      8.15596686	      8.02300435	     -5.81230137	      1.99980746	     -1.40242894	      4.20853496	     45.65086919	      1.46434429	      4.52216381	    -43.41138404	     16.36418893	      9.02543557	    -67.04672669	     12.78785865	      1.40144940	      5.94883491
      4.22000000	    -18.41787483	     -1.16736665	     -3.40374159	     -1.21361551	     -0.00149204	     -0.24001268	      6.10737708	      8.01839153	      8.00502829	     -5.56329474	      1.96976662	     -1.10408204	      4.49666899	     45.70247293	      1.40185092	      4.52371107	    -41.50504262	     16.32251578	      9.11755380	    -67.00297717	     12.65516926	      1.40932264	      6.17423070
      4.22500000	    -18.41101424	     -1.04076074	     -3.66855273	     -1.20647376	     -0.00206852	     -0.23979452	      5.47704100	      7.86719125	      8.01669205	     -5.34723028	      1.96636271	     -0.82229162	      4.73913613	     45.78943525	      1.33592397	      4.50502734	    -39.54211292	     16.21116392	      9.27368768	    -66.96168573	     12.59210016	      1.40267159	      6.35836725
      4.23000000	    -18.40578570	     -0.91713191	     -3.92124863	     -1.19934220	     -0.00276334	     -0.23955684	      4.88682532	      7.72658137	      7.99947168	     -5.20926887	      2.01730666	     -0.58195942	      4.95822984	     45.83897602	      1.26264187	      4.52696348	    -37.52613826	     16.13874463	      9.54494736	    -66.91708170	     12.52765500	      1.39053773	      6.51953355
      4.23500000	    -18.36283518	     -0.79803977	     -4.17503077	     -1.19218921	     -0.00348425	     -0.23934108	      4.25797580	      7.57904872	      7.96685701	     -5.07225395	      2.07028183	     -0.27854023	      5.22060518	     45.81218610	      1.17765654	      4.54029114	    -35.46419547	     16.04481570	      9.85423840	    -66.86325844	     12.42380203	      1.37950326	      6.69970291
      4.24000000	    -18.25535970	     -0.70928546	     -4.39569166	     -1.18506017	     -0.00422456	     -0.23924889	      3.58254636	      7.44568699	      7.80275549	     -4.96158085	      2.10154416	      0.09922234	      5.76786905	     45.68286305	      1.10242191	      4.64956019	    -33.36374774	     15.97492031	     10.22176539	    -66.71484076	     12.23782853	      1.40235373	      6.85281071
      4.24500000	    -18.33168463	     -0.56909614	     -4.62071307	     -1.17786822	     -0.00524557	     -0.23900834	      3.12203814	      7.28771104	      7.80651370	     -4.90473879	      2.18337465	      0.28918662	      6.00412802	     45.73403782	      1.00903766	      4.63197073	    -31.24388724	     15.91851379	     10.76728131	    -66.67791158	     12.27387164	      1.36551164	      6.94888274
      4.25000000	    -18.29669815	     -0.42425927	     -4.85633936	     -1.17070343	     -0.00618747	     -0.23878841	      2.56954402	      7.11048875	      7.76818769	     -4.89164631	      2.28951407	      0.56244080	      6.32053754	     45.61528083	      0.92282596	      4.67624534	    -29.07021181	     15.92106368	     11.35466461	    -66.63120115	     12.17576346	      1.31870698	      7.10916580
      4.25500000	    -18.23529070	     -0.30520827	     -5.06667269	     -1.16362224	     -0.00718384	     -0.23863054	      2.02598647	      6.95403274	      7.66823116	     -4.93516324	      2.40522200	      0.86323730	      6.81239716	     45.45353665	      0.83626429	      4.81336334	    -26.89057985	     15.94782332	     11.98872609	    -66.57031505	     12.02922064	      1.29225341	      7.24385590
      4.26000000	    -18.31814434	     -0.16465374	     -5.24853972	     -1.15639618	     -0.00842652	     -0.23840742	      1.63139231	      6.79409928	      7.62708803	     -4.98682746	      2.50408813	      1.02986378	      7.13273527	     45.43886214	      0.74789097	      4.85852715	    -24.73370713	     16.01886895	     12.72460122	    -66.54920076	     12.07217552	      1.23593476	      7.29148359
      4.26500000	    -18.32800619	     -0.03509344	     -5.46872709	     -1.14925087	     -0.00964191	     -0.23818941	      1.20281820	      6.63552982	      7.61855780	     -5.11362538	      2.62886899	      1.25065431	      7.53396064	     45.31986031	      0.63224590	      4.95476969	    -22.57373477	     16.12235474	     13.45025666	    -66.53926399	     12.01088432	      1.20095706	      7.43482241
      4.27000000	    -18.27715933	      0.04797962	     -5.60463083	     -1.14209839	     -0.01089755	     -0.23810720	      0.70940606	      6.50442164	      7.43503714	     -5.21125579	      2.62541988	      1.50303564	      8.66256487	     45.13229239	      0.54986417	      5.19345282	    -20.44413868	     16.22509304	     14.12918734	    -66.55196086	     11.87537039	      1.19086772	      7.47466554
      4.27500000	    -18.45099758	      0.18083720	     -5.83645588	     -1.13489131	     -0.01246343	     -0.23776957	      0.50468501	      6.37107373	      7.59108560	     -5.44868307	      2.77299098	      1.54258383	      8.91389218	     45.18292563	      0.39848410	      5.26741473	    -18.37120414	     16.30750170	     14.78328269	    -66.57131997	     12.00567637	      1.15199575	      7.58141829
      4.28000000	    -18.38966319	      0.31782860	     -6.01481337	     -1.12761145	     -0.01381389	     -0.23758466	      0.03658379	      6.17915776	      7.59025399	     -5.63482303	      2.82521869	      1.71500248	      9.81599287	     44.94454446	      0.32263112	      5.44571284	    -16.29685781	     16.37026803	     15.29917641	    -66.65151756	     11.87549175	      1.08931224	      7.67211032
      4.28500000	    -18.56923138	      0.44012044	     -6.28946203	     -1.12036796	     -0.01548098	     -0.23721167	     -0.10813267	      6.05058731	      7.82863175	     -5.97468726	      2.97702893	      1.79978375	     10.08413659	     44.98827916	      0.13674571	      5.54885057	    -14.34496239	     16.40268807	     15.71992490	    -66.68074583	     12.00700217	      1.07534086	      7.85240601
      4.29000000	    -18.67570642	      0.58974690	     -6.54553880	     -1.11304740	     -0.01709680	     -0.23685938	     -0.32709580	      5.87256463	      8.06801030	     -6.31999534	      3.13686858	      1.93477784	     10.39863369	     44.94823601	     -0.00261988	      5.65501395	    -12.46752123	     16.37779793	     16.00491027	    -66.71709965	     12.06773167	      1.01962768	      8.06494065
      4.29500000	    -18.62138932	      0.78243081	     -6.72512967	     -1.10557969	     -0.01856104	     -0.23670358	     -0.71412943	      5.60179052	      8.12735532	     -6.63617677	      3.17670934	      2.10289285	     11.51599220	     44.66971867	      0.00289444	      6.10716803	    -10.56531972	     16.21200168	     15.73894131	    -66.78588032	     11.96754841	      0.89608360	      8.15031127
      4.30000000	    -18.81113462	      0.93742864	     -7.04058909	     -1.09820520	     -0.02032500	     -0.23628317	     -0.77921813	      5.42409887	      8.53450374	     -7.10191934	      3.31847734	      2.21146978	     11.82238071	     44.78875278	     -0.17346420	      6.04941546	     -9.03114779	     16.18017925	     15.84801565	    -66.79627417	     12.12267627	      0.86196678	      8.37202458
      4.30500000	    -18.84953797	      1.11682086	     -7.29550136	     -1.09071589	     -0.02192317	     -0.23605540	     -1.01962968	      5.17366868	      8.83888102	     -7.50014984	      3.28999009	      2.28115019	     12.90636040	     44.66788906	     -0.23255739	      6.45300413	     -7.47088192	     15.95031137	     15.30827816	    -66.78505445	     12.12313901	      0.78007707	      8.56950412
      4.31000000	    -19.04233748	      1.29850034	     -7.58391547	     -1.08320831	     -0.02372707	     -0.23566372	     -1.04460153	      4.96338958	      9.26598085	     -8.03651168	      3.42319894	      2.37569162	     13.16888814	     44.86171841	     -0.34460302	      6.26042351	     -6.31574179	     15.87088707	     15.28575985	    -66.78470957	     12.29937227	      0.70817819	      8.79385022
      4.31500000	    -19.16617812	      1.48869154	     -7.88214239	     -1.07558620	     -0.02544549	     -0.23539833	     -1.13526796	      4.71218547	      9.65176963	     -8.53045328	      3.29106081	      2.37913317	     14.46553587	     44.89412325	     -0.41679386	      6.63695792	     -5.16081724	     15.63695251	     14.54940563	    -66.67783258	     12.40968641	      0.63759461	      9.06368012
      4.32000000	    -19.32208018	      1.68687844	     -8.21155390	     -1.06790604	     -0.02722067	     -0.23499073	     -1.16053613	      4.47188786	     10.15809527	     -9.14062102	      3.37602216	      2.51924869	     14.73233293	     45.09560142	     -0.51042273	      6.39469307	     -4.41307573	     15.63255052	     14.42067195	    -66.65071580	     12.56641633	      0.55677971	      9.36189095
      4.32500000	    -19.46362614	      1.86933884	     -8.53463450	     -1.06018285	     -0.02895768	     -0.23464945	     -1.18036970	      4.24039489	     10.67226257	     -9.78537654	      3.38680835	      2.68165409	     15.02171918	     45.29881967	     -0.59134400	      6.23791467	     -3.85612300	     15.59962894	     14.19675130	    -66.62823715	     12.70037547	      0.49311164	      9.65348375
      4.33000000	    -19.60030039	      2.05859157	     -8.86757733	     -1.05230075	     -0.03071465	     -0.23432912	     -1.19749595	      3.99810673	     11.17311663	    -10.44957323	      3.37318523	      2.84931237	     15.35538359	     45.49509699	     -0.65642541	      6.13895967	     -3.47490766	     15.60658830	     13.91227142	    -66.59487487	     12.85526904	      0.43916325	      9.97031187
